<?xml version="1.0" encoding="UTF-8"?>
<!-- Sisyfos icon (bold): bigger, more symbolic, visible on light & dark backgrounds via halo stroke. -->
<svg xmlns="http://www.w3.org/2000/svg" width="24" height="24" viewBox="0 0 24 24" role="img" aria-label="Sisyfos icon">
  <defs>
    <style>
      .halo{fill:none;stroke:#ffffff;stroke-width:5;stroke-linecap:round;stroke-linejoin:round}
      .main{fill:none;stroke:#0B1C3B;stroke-width:2.6;stroke-linecap:round;stroke-linejoin:round}
    </style>
    <clipPath id="coinClip">
      <circle cx="16.8" cy="8.2" r="5.4"/>
    </clipPath>
  </defs>

  <!-- COIN -->
  <circle class="halo" cx="16.8" cy="8.2" r="5.4"/>
  <circle class="main" cx="16.8" cy="8.2" r="5.4"/>

  <!-- Tricolor wedges -->
  <g clip-path="url(#coinClip)">
    <path d="M16.8 8.2 L16.8 2.8 A5.4 5.4 0 0 0 12.2 5.4 Z" fill="#11457E"/>
    <path d="M16.8 8.2 L12.2 5.4 A5.4 5.4 0 0 0 16.8 13.6 Z" fill="#FFFFFF"/>
    <path d="M16.8 8.2 L16.8 13.6 A5.4 5.4 0 0 0 22.2 8.2 Z" fill="#D7141A"/>
  </g>

  <!-- FIGURE -->
  <circle class="halo" cx="7.4" cy="9.0" r="1.45"/>
  <circle class="main" cx="7.4" cy="9.0" r="1.45"/>

  <path class="halo" d="M8.0 10.6 L10.3 15.2"/>
  <path class="main" d="M8.0 10.6 L10.3 15.2"/>

  <path class="halo" d="M10.3 15.2 L7.6 20.6"/>
  <path class="main" d="M10.3 15.2 L7.6 20.6"/>

  <path class="halo" d="M10.3 15.2 L12.6 20.4"/>
  <path class="main" d="M10.3 15.2 L12.6 20.4"/>

  <path class="halo" d="M9.0 12.2 L12.8 10.3 L13.7 9.9"/>
  <path class="main" d="M9.0 12.2 L12.8 10.3 L13.7 9.9"/>

  <path class="halo" d="M13.7 9.9 L14.2 9.7"/>
  <path class="main" d="M13.7 9.9 L14.2 9.7"/>
</svg>
